<mxfile host="Electron" modified="2023-11-28T03:25:28.174Z" agent="Mozilla/5.0 (Windows NT 10.0; Win64; x64) AppleWebKit/537.36 (KHTML, like Gecko) draw.io/22.1.2 Chrome/114.0.5735.289 Electron/25.9.4 Safari/537.36" etag="zJEYfcwEYI4PE2PpOnYa" version="22.1.2" type="device">
  <diagram name="Page-1" id="D9-gj8FlPxRxhv7m4vXI">
    <mxGraphModel dx="792" dy="1187" grid="1" gridSize="10" guides="1" tooltips="1" connect="1" arrows="1" fold="1" page="1" pageScale="1" pageWidth="1100" pageHeight="850" math="0" shadow="0">
      <root>
        <mxCell id="0" />
        <mxCell id="1" parent="0" />
        <mxCell id="Pk-fme_U5N2IDVF4iXrb-1" value="" style="whiteSpace=wrap;html=1;aspect=fixed;fillColor=#e1d5e7;strokeColor=#9673a6;" parent="1" vertex="1">
          <mxGeometry x="40" y="410" width="80" height="80" as="geometry" />
        </mxCell>
        <mxCell id="Pk-fme_U5N2IDVF4iXrb-2" value="Terraform configuration&lt;br&gt;file&amp;nbsp;" style="text;html=1;strokeColor=none;fillColor=none;align=center;verticalAlign=middle;whiteSpace=wrap;rounded=0;" parent="1" vertex="1">
          <mxGeometry x="45" y="440" width="70" height="20" as="geometry" />
        </mxCell>
        <mxCell id="Pk-fme_U5N2IDVF4iXrb-3" value="" style="endArrow=classic;html=1;rounded=0;exitX=1.03;exitY=0.628;exitDx=0;exitDy=0;exitPerimeter=0;" parent="1" edge="1">
          <mxGeometry width="50" height="50" relative="1" as="geometry">
            <mxPoint x="119.99999999999997" y="449.9999999999999" as="sourcePoint" />
            <mxPoint x="210" y="450" as="targetPoint" />
            <Array as="points">
              <mxPoint x="177.6" y="449.76" />
            </Array>
          </mxGeometry>
        </mxCell>
        <mxCell id="zW-y7rjTlRy6HZLA2KA3-5" value="AWS Cloud" style="sketch=0;outlineConnect=0;html=1;whiteSpace=wrap;fontSize=12;fontStyle=0;shape=mxgraph.aws4.group;grIcon=mxgraph.aws4.group_aws_cloud;strokeColor=#d79b00;fillColor=default;verticalAlign=top;align=left;spacingLeft=30;gradientColor=none;" vertex="1" parent="1">
          <mxGeometry x="210" y="205" width="570" height="490" as="geometry" />
        </mxCell>
        <mxCell id="zW-y7rjTlRy6HZLA2KA3-6" value="&lt;font style=&quot;font-size: 31px;&quot;&gt;&lt;b&gt;Single Tier&amp;nbsp;&lt;/b&gt;&lt;/font&gt;" style="text;html=1;strokeColor=none;fillColor=none;align=center;verticalAlign=middle;whiteSpace=wrap;rounded=0;" vertex="1" parent="1">
          <mxGeometry x="360" y="120" width="300" height="80" as="geometry" />
        </mxCell>
        <mxCell id="zW-y7rjTlRy6HZLA2KA3-7" value="Region" style="sketch=0;outlineConnect=0;html=1;whiteSpace=wrap;fontSize=12;fontStyle=0;shape=mxgraph.aws4.group;grIcon=mxgraph.aws4.group_region;strokeColor=#C73500;fillColor=none;verticalAlign=top;align=left;spacingLeft=30;fontColor=#000000;dashed=1;" vertex="1" parent="1">
          <mxGeometry x="240" y="240" width="500" height="420" as="geometry" />
        </mxCell>
        <mxCell id="zW-y7rjTlRy6HZLA2KA3-8" value="VPC" style="sketch=0;outlineConnect=0;html=1;whiteSpace=wrap;fontSize=12;fontStyle=0;shape=mxgraph.aws4.group;grIcon=mxgraph.aws4.group_vpc;strokeColor=#6c8ebf;fillColor=none;verticalAlign=top;align=left;spacingLeft=30;dashed=0;" vertex="1" parent="1">
          <mxGeometry x="270" y="280" width="440" height="370" as="geometry" />
        </mxCell>
        <mxCell id="zW-y7rjTlRy6HZLA2KA3-10" value="us-east-1" style="sketch=0;outlineConnect=0;gradientColor=none;html=1;whiteSpace=wrap;fontSize=12;fontStyle=0;shape=mxgraph.aws4.group;grIcon=mxgraph.aws4.group_availability_zone;strokeColor=#545B64;fillColor=none;verticalAlign=top;align=left;spacingLeft=30;fontColor=#545B64;dashed=1;" vertex="1" parent="1">
          <mxGeometry x="305" y="320" width="295" height="290" as="geometry" />
        </mxCell>
        <mxCell id="zW-y7rjTlRy6HZLA2KA3-11" value="Public subnet" style="sketch=0;outlineConnect=0;gradientColor=none;html=1;whiteSpace=wrap;fontSize=12;fontStyle=0;shape=mxgraph.aws4.group;grIcon=mxgraph.aws4.group_subnet;strokeColor=#879196;fillColor=none;verticalAlign=top;align=left;spacingLeft=30;fontColor=#879196;dashed=0;" vertex="1" parent="1">
          <mxGeometry x="377.5" y="395" width="150" height="140" as="geometry" />
        </mxCell>
        <mxCell id="zW-y7rjTlRy6HZLA2KA3-9" value="S3 Bucket" style="sketch=0;outlineConnect=0;fontColor=#000000;strokeColor=#C73500;fillColor=none;dashed=0;verticalLabelPosition=bottom;verticalAlign=top;align=center;html=1;fontSize=12;fontStyle=0;aspect=fixed;shape=mxgraph.aws4.resourceIcon;resIcon=mxgraph.aws4.bucket;" vertex="1" parent="1">
          <mxGeometry x="437.5" y="450" width="30" height="30" as="geometry" />
        </mxCell>
      </root>
    </mxGraphModel>
  </diagram>
</mxfile>
